<?xml version="1.0" encoding="UTF-8" standalone="no"?>
<svg
   class="img-fluid"
   id="outputsvg"
   width="720"
   height="720"
   viewBox="0 0 7200 7200"
   version="1.1"
   sodipodi:docname="logo_no_text.svg"
   inkscape:export-filename="logo.png"
   inkscape:export-xdpi="96"
   inkscape:export-ydpi="96"
   inkscape:version="1.4.2 (ebf0e940d0, 2025-05-08)"
   xmlns:inkscape="http://www.inkscape.org/namespaces/inkscape"
   xmlns:sodipodi="http://sodipodi.sourceforge.net/DTD/sodipodi-0.dtd"
   xmlns:xlink="http://www.w3.org/1999/xlink"
   xmlns="http://www.w3.org/2000/svg"
   xmlns:svg="http://www.w3.org/2000/svg">
  <sodipodi:namedview
     id="namedview38"
     pagecolor="#ffffff"
     bordercolor="#666666"
     borderopacity="1.0"
     inkscape:showpageshadow="2"
     inkscape:pageopacity="0.0"
     inkscape:pagecheckerboard="0"
     inkscape:deskcolor="#d1d1d1"
     inkscape:zoom="0.49497475"
     inkscape:cx="361.63461"
     inkscape:cy="512.14734"
     inkscape:window-width="1920"
     inkscape:window-height="1020"
     inkscape:window-x="0"
     inkscape:window-y="0"
     inkscape:window-maximized="1"
     inkscape:current-layer="outputsvg" />
  <defs
     id="defs6">
    <linearGradient
       id="lg23Mp0ee5XNjMXo"
       gradientUnits="userSpaceOnUse"
       x1="5780"
       y1="4390"
       x2="7469.9995"
       y2="7330.0005">
      <stop
         offset="0"
         style="stop-color:rgb(29,52,94);"
         id="stop1" />
      <stop
         offset="0.5"
         style="stop-color:#782645;stop-opacity:1;"
         id="stop104" />
      <stop
         offset="0.75"
         style="stop-color:#a51f38;stop-opacity:1;"
         id="stop105" />
      <stop
         offset="0.875"
         style="stop-color:#bc1c32;stop-opacity:1;"
         id="stop106" />
    </linearGradient>
    <linearGradient
       inkscape:collect="always"
       xlink:href="#lg23Mp0ee5XNjMXo"
       id="linearGradient101"
       x1="5316.7983"
       y1="4508.9443"
       x2="7060.0918"
       y2="6919.5586"
       gradientUnits="userSpaceOnUse"
       spreadMethod="pad"
       gradientTransform="translate(-2819.6932,-1891.0437)" />
  </defs>
  <path
     style="vector-effect:non-scaling-stroke;fill:url(#linearGradient101);stroke:none;stroke-width:10;stroke-linecap:butt;stroke-linejoin:miter;stroke-dasharray:none;stroke-opacity:1;-inkscape-stroke:hairline"
     d="m 5261.1946,2362.4705 c 0,0 -828.6067,-970.6535 -2217.5093,-789.1492 -1388.9025,181.5043 -1305.7615,1258.8913 -1305.7615,1258.8913 0,0 35.2313,674.5242 721.7911,934.9435 686.5598,260.4192 1622.198,306.8976 1874.2293,674.7226 451.1043,658.3598 -638.9798,1661.8661 -2552.8976,335.3883 0,0 654.9939,868.0642 1941.3071,872.0099 1286.3132,3.9457 1720.3452,-689.6643 1740.0739,-1210.5028 19.7288,-520.8385 -449.815,-1058.3011 -1112.7003,-1192.4565 -662.8854,-134.1554 -1467.8175,-311.7139 -1609.8644,-686.5598 -142.0468,-374.8459 291.9852,-733.9088 729.963,-749.6918 437.9778,-15.7829 1092.9717,27.6203 1791.3687,552.4045 z"
     id="path100"
     sodipodi:nodetypes="cscsscsssssc" />
</svg>
