<?xml version="1.0" encoding="UTF-8" standalone="no"?>
<svg
   inkscape:version="1.4.2 (ebf0e940d0, 2025-05-08)"
   inkscape:export-ydpi="98.341461"
   inkscape:export-xdpi="98.341461"
   inkscape:export-filename="logo_wide_red_text.svg"
   sodipodi:docname="logo_wide_original.svg"
   version="1.1"
   viewBox="0 0 7488.8629 1479.4322"
   height="147.94322"
   width="748.88629"
   id="outputsvg"
   class="img-fluid"
   xmlns:inkscape="http://www.inkscape.org/namespaces/inkscape"
   xmlns:sodipodi="http://sodipodi.sourceforge.net/DTD/sodipodi-0.dtd"
   xmlns:xlink="http://www.w3.org/1999/xlink"
   xmlns="http://www.w3.org/2000/svg"
   xmlns:svg="http://www.w3.org/2000/svg"
   xmlns:rdf="http://www.w3.org/1999/02/22-rdf-syntax-ns#"
   xmlns:cc="http://creativecommons.org/ns#"
   xmlns:dc="http://purl.org/dc/elements/1.1/">
  <metadata
     id="metadata13">
    <rdf:RDF>
      <cc:Work
         rdf:about="">
        <dc:format>image/svg+xml</dc:format>
        <dc:type
           rdf:resource="http://purl.org/dc/dcmitype/StillImage" />
      </cc:Work>
    </rdf:RDF>
  </metadata>
  <sodipodi:namedview
     showgrid="false"
     inkscape:document-rotation="0"
     inkscape:current-layer="outputsvg"
     inkscape:window-maximized="1"
     inkscape:window-y="0"
     inkscape:window-x="0"
     inkscape:window-height="1020"
     inkscape:window-width="1920"
     inkscape:cy="251.35436"
     inkscape:cx="374.54562"
     inkscape:zoom="0.90509668"
     inkscape:deskcolor="#d1d1d1"
     inkscape:pagecheckerboard="true"
     inkscape:pageopacity="0.0"
     inkscape:showpageshadow="2"
     borderopacity="1.0"
     bordercolor="#666666"
     pagecolor="#ffffff"
     id="namedview38"
     labelstyle="default"
     showguides="true">
    <inkscape:page
       x="0"
       y="0"
       width="7488.8628"
       height="1479.4323"
       id="page1"
       margin="0"
       bleed="0" />
  </sodipodi:namedview>
  <defs
     id="defs6">
    <linearGradient
       spreadMethod="pad"
       gradientUnits="userSpaceOnUse"
       y2="6919.5586"
       x2="7060.0918"
       y1="4508.9443"
       x1="5316.7983"
       id="linearGradient101"
       xlink:href="#lg23Mp0ee5XNjMXo"
       inkscape:collect="always"
       gradientTransform="matrix(0.3260632,0,0,0.3260632,-1480.7689,-1117.2347)" />
    <linearGradient
       y2="7330.0005"
       x2="7469.9995"
       y1="4390"
       x1="5780"
       gradientUnits="userSpaceOnUse"
       id="lg23Mp0ee5XNjMXo">
      <stop
         id="stop1"
         style="stop-color:rgb(29,52,94);"
         offset="0" />
      <stop
         id="stop104"
         style="stop-color:#782645;stop-opacity:1;"
         offset="0.5" />
      <stop
         id="stop105"
         style="stop-color:#a51f38;stop-opacity:1;"
         offset="0.75" />
      <stop
         id="stop106"
         style="stop-color:#bc1c32;stop-opacity:1;"
         offset="0.875" />
    </linearGradient>
  </defs>
  <path
     style="font-weight:bold;font-size:1092.59px;line-height:0px;font-family:Bion;-inkscape-font-specification:'Bion, Bold';dominant-baseline:central;text-anchor:middle;fill:#bc1c32;fill-opacity:1;stroke-width:0.89777"
     d="M 1501.4679,1257.6367 1279.6722,714.61949 h 218.5179 l 111.4442,300.46221 110.3516,-300.46221 h 218.518 l -315.7585,764.81301 h -222.8883 z m 533.1839,-543.01721 h 103.796 l 58.9999,63.3702 q 32.7777,-38.2406 80.8516,-57.9073 48.074,-19.6666 105.9812,-19.6666 74.2962,0 131.1108,31.6851 56.8147,31.6851 87.4072,89.5924 31.6851,57.9073 31.6851,134.3886 V 1278.3959 H 2426.8915 V 975.74849 q 0,-48.074 -24.0369,-74.2961 -24.037,-26.2222 -67.7406,-26.2222 -43.7036,0 -68.8332,27.3148 -24.037,26.2221 -24.037,73.2035 v 302.64741 h -207.592 z M 3054.0391,1291.507 q -92.8701,0 -162.7959,-36.0555 -68.8332,-37.148 -107.0738,-103.796 -38.2407,-66.648 -38.2407,-155.14781 0,-88.4998 37.1481,-155.1478 38.2406,-66.648 107.0738,-102.7034 68.8332,-37.1481 159.5181,-37.1481 89.5924,0 184.6478,37.1481 v 175.907 q -83.0369,-38.2407 -149.6849,-38.2407 -63.3702,0 -98.3331,31.6851 -34.9628,31.6851 -34.9628,88.4998 0,56.81471 36.0554,88.49981 36.0555,31.6851 100.5183,31.6851 69.9258,0 150.7774,-39.3332 v 172.6292 q -88.4998,41.5184 -184.6477,41.5184 z m 404.2587,-777.92411 h 154.0552 l 233.8143,375.851 233.8142,-375.851 h 154.0552 l 113.6294,764.81301 h -222.8884 l -55.7221,-400.98051 -159.5181,258.94381 h -126.7404 l -159.5182,-258.94381 -55.7221,400.98051 h -222.8883 z m 1260.8496,776.83151 q -80.8517,0 -145.3145,-37.1481 -63.3702,-38.2406 -99.4257,-104.8886 -34.9628,-66.648 -34.9628,-151.87001 0,-85.222 34.9628,-151.87 36.0555,-66.648 99.4257,-103.796 64.4628,-38.2407 145.3145,-38.2407 57.9073,0 107.0738,19.6666 50.2591,18.5741 86.3146,54.6295 l 52.4443,-62.2776 h 112.5368 v 563.77641 h -112.5368 l -52.4443,-63.3702 q -36.0555,36.0555 -86.3146,55.7221 -49.1665,19.6666 -107.0738,19.6666 z m -74.2961,-293.90671 q 0,54.62951 32.7777,88.49981 32.7777,32.7777 86.3146,32.7777 53.5369,0 86.3146,-32.7777 32.7777,-33.8703 32.7777,-88.49981 0,-54.6295 -32.7777,-87.4072 -32.7777,-33.8703 -86.3146,-33.8703 -53.5369,0 -86.3146,33.8703 -32.7777,32.7777 -32.7777,87.4072 z m 808.5156,293.90671 q -63.3702,0 -127.833,-14.2037 -63.3703,-14.2036 -115.8146,-39.3332 v -160.6107 q 56.8147,31.6851 112.5368,49.1665 55.7221,16.3889 102.7034,16.3889 67.7406,0 67.7406,-37.1481 0,-18.574 -20.7592,-27.3147 -19.6666,-9.8333 -66.648,-22.9444 -56.8147,-13.1111 -96.1479,-29.5 -39.3332,-17.4814 -67.7406,-53.53691 -28.4073,-36.0554 -28.4073,-97.2405 0,-81.9442 60.0924,-126.7404 61.1851,-45.8888 168.2589,-45.8888 121.2775,0 231.6291,49.1666 v 156.2403 q -51.3518,-27.3147 -105.9813,-42.611 -54.6295,-15.2962 -96.1479,-15.2962 -62.2776,0 -62.2776,36.0554 0,20.7592 20.7592,30.5925 21.8518,9.8334 73.2035,24.037 57.9073,14.2037 96.148,30.5925 39.3332,16.3889 67.7405,51.35181 28.4074,33.8703 28.4074,91.7775 0,83.0369 -63.3703,130.0182 -62.2776,46.9814 -178.0921,46.9814 z m 664.2954,-2.1852 q -225.0736,0 -225.0736,-214.1476 V 893.80419 h -104.8886 v -85.222 l 234.9068,-240.3698 h 77.5739 v 146.4071 h 154.0552 v 168.2588 h -154.0552 v 158.42561 q 0,38.2406 18.5741,56.8147 18.574,17.4814 60.0924,17.4814 39.3332,0 81.9443,-14.2037 v 167.1663 q -76.4813,19.6666 -143.1293,19.6666 z m 592.183,4.3704 q -105.9812,0 -186.8329,-36.0555 -79.759,-37.148 -123.4626,-103.796 -43.7036,-67.7406 -43.7036,-156.24041 0,-86.3146 40.4258,-152.9626 40.4258,-67.7406 111.4442,-104.8886 72.1109,-38.2407 163.8885,-38.2407 93.9627,0 166.0736,38.2407 72.111,38.2406 110.3516,105.9812 39.3333,67.7406 39.3333,152.9626 0,37.14811 -5.463,64.46281 h -417.3694 q 15.2963,34.9629 60.0925,54.6295 44.7962,18.574 113.6293,18.574 91.7776,0 194.4811,-36.0554 v 155.1477 q -120.1849,38.2407 -222.8884,38.2407 z m 75.3887,-351.81401 q -10.9259,-40.4258 -39.3332,-62.2776 -28.4074,-21.8518 -72.111,-21.8518 -43.7036,0 -74.2961,22.9444 -29.4999,21.8518 -39.3332,61.185 z m 311.3886,-226.1661 h 103.796 l 55.7221,61.185 q 28.4073,-37.148 65.5554,-54.6295 37.1481,-17.4814 86.3146,-17.4814 40.4258,0 80.8517,10.9259 v 181.3699 q -40.4259,-10.9259 -72.111,-10.9259 -54.6295,0 -84.1294,32.7777 -28.4073,32.7777 -28.4073,92.87021 v 267.6845 h -207.5921 z"
     id="text37"
     aria-label="yncMaster" />
  <path
     sodipodi:nodetypes="cscsscsssssc"
     id="path100"
     d="m 1154.1112,269.67969 c 0,0 -270.17812,-316.494397 -723.04813,-257.312497 C -21.806924,71.549093 5.3022732,422.84529 5.3022732,422.84529 c 0,0 11.4876998,219.9375 235.3495968,304.8506 223.8619,84.9131 528.939,100.068 611.1171,220.0022 147.08841,214.66691 -208.3478,541.87341 -832.405897,109.35781 0,0 213.569397,283.0438 632.988797,284.3303 419.41933,1.2865 560.94113,-224.8742 567.37403,-394.70041 6.4328,-169.8262 -146.6682,-345.073 -362.81063,-388.8161 -216.1425,-43.7431 -478.6012,-101.6385 -524.9175,-223.8619 -46.3162,-122.2234 95.2057,-239.300597 238.014,-244.446897 142.8084,-5.1463 356.37781,9.0059 584.09943,180.118797 z"
     style="display:inline;fill:url(#linearGradient101);stroke:#370920;stroke-width:10;stroke-linecap:butt;stroke-linejoin:miter;stroke-dasharray:none;stroke-opacity:1" />
</svg>
