<?xml version="1.0" encoding="UTF-8" standalone="no"?>
<svg
   inkscape:version="1.4.2 (ebf0e940d0, 2025-05-08)"
   inkscape:export-ydpi="98.341461"
   inkscape:export-xdpi="98.341461"
   inkscape:export-filename="logo.svg"
   sodipodi:docname="logo_red_text.svg"
   version="1.1"
   viewBox="0 0 6187.3218 4685.5951"
   height="468.55951"
   width="618.73218"
   id="outputsvg"
   class="img-fluid"
   xmlns:inkscape="http://www.inkscape.org/namespaces/inkscape"
   xmlns:sodipodi="http://sodipodi.sourceforge.net/DTD/sodipodi-0.dtd"
   xmlns:xlink="http://www.w3.org/1999/xlink"
   xmlns="http://www.w3.org/2000/svg"
   xmlns:svg="http://www.w3.org/2000/svg"
   xmlns:rdf="http://www.w3.org/1999/02/22-rdf-syntax-ns#"
   xmlns:cc="http://creativecommons.org/ns#"
   xmlns:dc="http://purl.org/dc/elements/1.1/">
  <metadata
     id="metadata13">
    <rdf:RDF>
      <cc:Work
         rdf:about="">
        <dc:format>image/svg+xml</dc:format>
        <dc:type
           rdf:resource="http://purl.org/dc/dcmitype/StillImage" />
      </cc:Work>
    </rdf:RDF>
  </metadata>
  <sodipodi:namedview
     showgrid="false"
     inkscape:document-rotation="0"
     inkscape:current-layer="outputsvg"
     inkscape:window-maximized="1"
     inkscape:window-y="0"
     inkscape:window-x="0"
     inkscape:window-height="1020"
     inkscape:window-width="1920"
     inkscape:cy="301.73439"
     inkscape:cx="447.63633"
     inkscape:zoom="0.65454919"
     inkscape:deskcolor="#d1d1d1"
     inkscape:pagecheckerboard="0"
     inkscape:pageopacity="0.0"
     inkscape:showpageshadow="2"
     borderopacity="1.0"
     bordercolor="#666666"
     pagecolor="#ffffff"
     id="namedview38">
    <inkscape:page
       x="0"
       y="0"
       width="6187.3218"
       height="4685.5952"
       id="page2"
       margin="0"
       bleed="0" />
  </sodipodi:namedview>
  <defs
     id="defs6">
    <linearGradient
       y2="7330.0005"
       x2="7469.9995"
       y1="4390"
       x1="5780"
       gradientUnits="userSpaceOnUse"
       id="lg23Mp0ee5XNjMXo">
      <stop
         id="stop1"
         style="stop-color:rgb(29,52,94);"
         offset="0" />
      <stop
         id="stop104"
         style="stop-color:#782645;stop-opacity:1;"
         offset="0.5" />
      <stop
         id="stop105"
         style="stop-color:#a51f38;stop-opacity:1;"
         offset="0.75" />
      <stop
         id="stop106"
         style="stop-color:#bc1c32;stop-opacity:1;"
         offset="0.875" />
    </linearGradient>
    <linearGradient
       spreadMethod="pad"
       gradientUnits="userSpaceOnUse"
       y2="6919.5586"
       x2="7060.0918"
       y1="4508.9443"
       x1="5316.7983"
       id="linearGradient101"
       xlink:href="#lg23Mp0ee5XNjMXo"
       inkscape:collect="always"
       gradientTransform="matrix(0.80997631,0,0,0.80997631,-2105.1231,-2782.7428)" />
  </defs>
  <path
     style="font-weight:bold;font-size:985.741px;line-height:0px;font-family:Bion;-inkscape-font-specification:'Bion, Bold';dominant-baseline:central;text-anchor:middle;fill:#bc1c32;fill-opacity:1;stroke:#bc1c32;stroke-width:0.809976;stroke-opacity:1"
     d="m 241.91155,4516.6287 q -129.13208,0 -241.50656201,-55.2015 v -168.5617 q 52.24428001,29.5722 115.33170201,48.3013 64.07317,17.7433 117.30319,17.7433 44.35834,0 68.01613,-13.8003 23.65778,-13.8004 23.65778,-41.4012 0,-27.6007 -25.62926,-41.4011 -24.64353,-13.8004 -80.83077,-29.5722 -65.05891,-18.7291 -108.43151,-38.4439 -42.386872,-20.7006 -73.930582,-65.0589 -31.5437101,-45.3441 -31.5437101,-120.2604 0,-98.5741 67.0303901,-151.8041 68.016132,-53.2301 193.205242,-53.2301 117.30318,0 231.64914,51.2586 v 160.6758 q -53.23001,-25.6293 -110.40299,-40.4154 -56.18724,-14.7861 -103.50281,-14.7861 -41.40113,0 -61.11595,11.8289 -19.71482,11.8288 -19.71482,37.4581 0,28.5865 25.62927,43.3726 25.62927,13.8004 83.78799,30.558 65.05891,18.7291 107.44577,38.4439 42.38686,19.7148 72.94484,64.0732 31.54371,43.3726 31.54371,116.3174 0,100.5456 -73.93058,157.7186 -73.93058,56.1872 -207.00561,56.1872 z M 785.05453,4485.085 584.9491,3995.1717 h 197.1482 l 100.5456,271.0788 99.5598,-271.0788 h 197.1482 L 894.4718,4685.1904 H 693.38061 Z M 1266.096,3995.1717 h 93.6454 l 53.23,57.173 q 29.5722,-34.501 72.9448,-52.2443 43.3727,-17.7433 95.6169,-17.7433 67.0304,0 118.289,28.5865 51.2585,28.5864 78.8592,80.8307 28.5865,52.2443 28.5865,121.2462 v 290.7936 H 1619.977 v -273.0503 q 0,-43.3726 -21.6863,-67.0304 -21.6863,-23.6578 -61.1159,-23.6578 -39.4297,0 -62.1017,24.6436 -21.6863,23.6577 -21.6863,66.0446 v 273.0503 H 1266.096 Z m 919.6973,520.4713 q -83.788,0 -146.8754,-32.5295 -62.1017,-33.5152 -96.6026,-93.6454 -34.501,-60.1302 -34.501,-139.9752 0,-79.845 33.5152,-139.9752 34.501,-60.1302 96.6027,-92.6597 62.1016,-33.5152 143.9181,-33.5152 80.8308,0 166.5903,33.5152 v 158.7043 q -74.9163,-34.5009 -135.0465,-34.5009 -57.173,0 -88.7167,28.5865 -31.5437,28.5864 -31.5437,79.845 0,51.2585 32.5294,79.845 32.5295,28.5865 90.6882,28.5865 63.0874,0 136.0322,-35.4867 v 155.7471 q -79.845,37.4582 -166.5902,37.4582 z m 364.7244,-701.8477 h 138.9895 l 210.9486,339.095 210.9485,-339.095 h 138.9895 l 102.5171,690.0188 h -201.0912 l -50.2728,-361.767 -143.9182,233.6206 h -114.3459 l -143.9182,-233.6206 -50.2728,361.767 h -201.0912 z m 1137.546,700.8619 q -72.9448,0 -131.1036,-33.5152 -57.1729,-34.5009 -89.7024,-94.6311 -31.5437,-60.1302 -31.5437,-137.018 0,-76.8878 31.5437,-137.018 32.5295,-60.1302 89.7024,-93.6454 58.1588,-34.501 131.1036,-34.501 52.2443,0 96.6026,17.7434 45.3441,16.7576 77.8736,49.287 l 47.3155,-56.1872 h 101.5314 v 508.6424 h -101.5314 l -47.3155,-57.173 q -32.5295,32.5294 -77.8736,50.2728 -44.3583,17.7433 -96.6026,17.7433 z m -67.0304,-265.1643 q 0,49.287 29.5722,79.845 29.5723,29.5722 77.8736,29.5722 48.3013,0 77.8735,-29.5722 29.5723,-30.558 29.5723,-79.845 0,-49.2871 -29.5723,-78.8593 -29.5722,-30.558 -77.8735,-30.558 -48.3013,0 -77.8736,30.558 -29.5722,29.5722 -29.5722,78.8593 z m 729.4473,265.1643 q -57.173,0 -115.3317,-12.8146 -57.173,-12.8146 -104.4885,-35.4867 V 4321.452 q 51.2585,28.5865 101.5313,44.3583 50.2728,14.7861 92.6597,14.7861 61.1159,0 61.1159,-33.5152 0,-16.7576 -18.7291,-24.6435 -17.7433,-8.8717 -60.1302,-20.7005 -51.2585,-11.8289 -86.7452,-26.6151 -35.4867,-15.7718 -61.1159,-48.3013 -25.6293,-32.5294 -25.6293,-87.7309 0,-73.9306 54.2158,-114.346 55.2015,-41.4011 151.8041,-41.4011 109.4172,0 208.9771,44.3584 v 140.9609 q -46.3299,-24.6435 -95.6169,-38.4439 -49.2871,-13.8004 -86.7452,-13.8004 -56.1873,0 -56.1873,32.5295 0,18.7291 18.7291,27.6007 19.7148,8.8717 66.0447,21.6863 52.2442,12.8147 86.7452,27.6008 35.4867,14.7861 61.1159,46.3298 25.6293,30.558 25.6293,82.8023 0,74.9163 -57.173,117.3032 -56.1872,42.3868 -160.6758,42.3868 z m 599.3311,-1.9715 q -203.0626,0 -203.0626,-193.2052 v -162.6473 h -94.6312 v -76.8878 l 211.9343,-216.863 h 69.9876 v 132.0893 h 138.9895 v 151.8041 h -138.9895 v 142.9325 q 0,34.5009 16.7576,51.2585 16.7576,15.7719 54.2158,15.7719 35.4867,0 73.9306,-12.8147 v 150.8184 q -69.0019,17.7433 -129.1321,17.7433 z m 534.2713,3.943 q -95.6169,0 -168.5618,-32.5295 -71.959,-33.5151 -111.3887,-93.6454 -39.4296,-61.1159 -39.4296,-140.9609 0,-77.8736 36.4724,-138.0038 36.4724,-61.1159 100.5456,-94.6311 65.0589,-34.5009 147.8611,-34.5009 84.7738,0 149.8327,34.5009 65.0589,34.5009 99.5598,95.6169 35.4867,61.1159 35.4867,138.0037 0,33.5152 -4.9287,58.1587 h -376.5531 q 13.8004,31.5438 54.2158,49.2871 40.4153,16.7576 102.517,16.7576 82.8023,0 175.4619,-32.5295 v 139.9753 q -108.4315,34.5009 -201.0911,34.5009 z m 68.0161,-317.4086 q -9.8574,-36.4724 -35.4867,-56.1872 -25.6293,-19.7149 -65.0589,-19.7149 -39.4296,0 -67.0304,20.7006 -26.615,19.7148 -35.4867,55.2015 z m 280.9364,-204.0484 h 93.6453 l 50.2728,55.2015 q 25.6293,-33.5152 59.1445,-49.2871 33.5152,-15.7718 77.8735,-15.7718 36.4725,0 72.9449,9.8574 v 163.633 q -36.4724,-9.8574 -65.0589,-9.8574 -49.2871,0 -75.9021,29.5722 -25.6293,29.5723 -25.6293,83.788 v 241.5066 h -187.2907 z"
     id="text37"
     aria-label="SyncMaster" />
  <path
     sodipodi:nodetypes="cscsscsssssc"
     id="path100"
     d="m 4440.2046,662.50305 c 0,0 -671.1518,-786.20641 -1796.13,-639.192234 C 1519.0965,170.325 1586.4387,1042.9829 1586.4387,1042.9829 c 0,0 28.5365,546.3487 584.6337,757.2821 556.0972,210.9334 1313.942,248.5798 1518.0814,546.5094 365.3837,533.2558 -517.5586,1346.0721 -2067.7866,271.6565 0,0 530.5295,703.1115 1572.4127,706.3074 1041.8833,3.1959 1393.4389,-558.6118 1409.4187,-980.4786 15.9798,-421.8668 -364.3395,-857.1988 -901.2609,-965.8615 C 3165.0162,1269.7355 2513.0403,1125.9173 2397.9857,822.30106 2282.9311,518.6848 2634.4868,227.85227 2989.2384,215.06842 3343.99,202.28464 3874.5196,237.44021 4440.2046,662.50305 Z"
     style="fill:url(#linearGradient101);stroke:#370920;stroke-width:10;stroke-linecap:butt;stroke-linejoin:miter;stroke-dasharray:none;stroke-opacity:1" />
</svg>
